<svg width="30" height="44" viewBox="0 0 31 44" fill="none" xmlns="http://www.w3.org/2000/svg">
<mask id="path-1-inside-1_26_10" fill="white">
<path d="M15 43.5L2.5 23.5L8.5 27.5L15 30L21.5 27.5L27.5 23.5L15 43.5Z"/>
</mask>
<path d="M15 43.5L-63.8638 92.7899L15 218.972L93.8638 92.7899L15 43.5ZM2.5 23.5L54.0871 -53.8807L-76.3638 72.7899L2.5 23.5ZM27.5 23.5L106.364 72.7899L-24.0871 -53.8807L27.5 23.5ZM15 30L-18.3851 116.801L15 129.642L48.385 116.801L15 30ZM8.5 27.5L-43.0871 104.881L-34.5083 110.6L-24.8851 114.301L8.5 27.5ZM21.5 27.5L54.8851 114.301L64.5083 110.6L73.0871 104.881L21.5 27.5ZM93.8638 -5.7899L81.3638 -25.7899L-76.3638 72.7899L-63.8638 92.7899L93.8638 -5.7899ZM-51.3638 -25.7899L-63.8638 -5.7899L93.8638 92.7899L106.364 72.7899L-51.3638 -25.7899ZM-49.0871 100.881L-43.0871 104.881L60.0871 -49.8807L54.0871 -53.8807L-49.0871 100.881ZM-24.8851 114.301L-18.3851 116.801L48.3851 -56.8011L41.8851 -59.3011L-24.8851 114.301ZM48.385 116.801L54.8851 114.301L-11.8851 -59.3011L-18.3851 -56.8011L48.385 116.801ZM73.0871 104.881L79.0871 100.881L-24.0871 -53.8807L-30.0871 -49.8807L73.0871 104.881Z" fill="black" mask="url(#path-1-inside-1_26_10)"/>
<circle cx="15" cy="15.5" r="13.5" fill="#50FFB3" stroke="black" stroke-width="3"/>
<g clip-path="url(#clip0_26_10)">
<path fill-rule="evenodd" clip-rule="evenodd" d="M19.023 8.39544L9.46262 11.1753L12.7694 15.6083L20.4013 13.3884C20.701 13.3009 20.8771 12.9777 20.7918 12.6702L19.7231 8.79609C19.6378 8.48859 19.3227 8.3079 19.023 8.39544ZM16.5487 15.5701L14.7712 15.9988V21.8134H16.5487V15.5701ZM11.1636 15.2604L9.11149 12.1203L7.37334 12.6253L9.44512 15.7598L11.1636 15.2604ZM13.4695 11.8004L12.5791 12.0597L12.8646 13.0933L13.755 12.834L13.4695 11.8004Z" fill="black"/>
</g>
<defs>
<clipPath id="clip0_26_10">
<rect width="14" height="14" fill="white" transform="translate(7 8)"/>
</clipPath>
</defs>
</svg>
