<svg width="30" height="43" viewBox="0 0 32 43" fill="none" xmlns="http://www.w3.org/2000/svg">
<mask id="path-1-inside-1_26_10" fill="white">
<path d="M15 43L2.5 23L8.5 27L15 29.5L21.5 27L27.5 23L15 43Z"/>
</mask>
<path d="M15 43L-63.8638 92.2899L15 218.472L93.8638 92.2899L15 43ZM2.5 23L54.0871 -54.3807L-76.3638 72.2899L2.5 23ZM27.5 23L106.364 72.2899L-24.0871 -54.3807L27.5 23ZM15 29.5L-18.3851 116.301L15 129.142L48.385 116.301L15 29.5ZM8.5 27L-43.0871 104.381L-34.5083 110.1L-24.8851 113.801L8.5 27ZM21.5 27L54.885 113.801L64.5083 110.1L73.0871 104.381L21.5 27ZM93.8638 -6.2899L81.3638 -26.2899L-76.3638 72.2899L-63.8638 92.2899L93.8638 -6.2899ZM-51.3638 -26.2899L-63.8638 -6.2899L93.8638 92.2899L106.364 72.2899L-51.3638 -26.2899ZM-49.0871 100.381L-43.0871 104.381L60.0871 -50.3807L54.0871 -54.3807L-49.0871 100.381ZM-24.8851 113.801L-18.3851 116.301L48.3851 -57.3011L41.8851 -59.8011L-24.8851 113.801ZM48.385 116.301L54.885 113.801L-11.8851 -59.8011L-18.3851 -57.3011L48.385 116.301ZM73.0871 104.381L79.0871 100.381L-24.0871 -54.3807L-30.0871 -50.3807L73.0871 104.381Z" fill="#50FFB3" mask="url(#path-1-inside-1_26_10)"/>
<circle cx="15" cy="15" r="13.5" fill="#111111" stroke="#50FFB3" stroke-width="3"/>
<g clip-path="url(#clip0_26_10)">
<path fill-rule="evenodd" clip-rule="evenodd" d="M19.023 7.89544L9.46264 10.6753L12.7694 15.1083L20.4013 12.8884C20.701 12.8009 20.8771 12.4777 20.7918 12.1702L19.7231 8.29609C19.6378 7.98859 19.3228 7.8079 19.023 7.89544ZM16.5487 15.0701L14.7712 15.4988V21.3134H16.5487V15.0701ZM11.1636 14.7604L9.11151 11.6203L7.37335 12.1253L9.44514 15.2598L11.1636 14.7604ZM13.4695 11.3004L12.5791 11.5597L12.8646 12.5933L13.755 12.334L13.4695 11.3004Z" fill="#50FFB3"/>
</g>
<defs>
<clipPath id="clip0_26_10">
<rect width="14" height="14" fill="white" transform="translate(7 7.5)"/>
</clipPath>
</defs>
</svg>
