<svg width="30" height="43" viewBox="0 0 32 43" fill="none" xmlns="http://www.w3.org/2000/svg">
<mask id="path-1-inside-1_29_83" fill="white">
<path d="M15 43L2.5 23L8.5 27L15 29.5L21.5 27L27.5 23L15 43Z"/>
</mask>
<path d="M15 43L-63.8638 92.2899L15 218.472L93.8638 92.2899L15 43ZM2.5 23L54.0871 -54.3807L-76.3638 72.2899L2.5 23ZM27.5 23L106.364 72.2899L-24.0871 -54.3807L27.5 23ZM15 29.5L-18.3851 116.301L15 129.142L48.385 116.301L15 29.5ZM8.5 27L-43.0871 104.381L-34.5083 110.1L-24.8851 113.801L8.5 27ZM21.5 27L54.885 113.801L64.5083 110.1L73.0871 104.381L21.5 27ZM93.8638 -6.2899L81.3638 -26.2899L-76.3638 72.2899L-63.8638 92.2899L93.8638 -6.2899ZM-51.3638 -26.2899L-63.8638 -6.2899L93.8638 92.2899L106.364 72.2899L-51.3638 -26.2899ZM-49.0871 100.381L-43.0871 104.381L60.0871 -50.3807L54.0871 -54.3807L-49.0871 100.381ZM-24.8851 113.801L-18.3851 116.301L48.3851 -57.3011L41.8851 -59.8011L-24.8851 113.801ZM48.385 116.301L54.885 113.801L-11.8851 -59.8011L-18.3851 -57.3011L48.385 116.301ZM73.0871 104.381L79.0871 100.381L-24.0871 -54.3807L-30.0871 -50.3807L73.0871 104.381Z" fill="#50FFB3" mask="url(#path-1-inside-1_29_83)"/>
<circle cx="15" cy="15" r="13.5" fill="#111111" stroke="#50FFB3" stroke-width="3"/>
<g clip-path="url(#clip0_29_83)">
<path d="M14.9102 20.7436C18.1319 20.7436 20.7436 18.1319 20.7436 14.9102C20.7436 11.6886 18.1319 9.0769 14.9102 9.0769C11.6886 9.0769 9.0769 11.6886 9.0769 14.9102C9.0769 18.1319 11.6886 20.7436 14.9102 20.7436Z" stroke="#50FFB3"/>
<path d="M15 18.5C16.933 18.5 18.5 16.933 18.5 15C18.5 13.067 16.933 11.5 15 11.5C13.067 11.5 11.5 13.067 11.5 15C11.5 16.933 13.067 18.5 15 18.5Z" stroke="#50FFB3"/>
<path d="M15 16.1666C15.6443 16.1666 16.1666 15.6443 16.1666 15C16.1666 14.3556 15.6443 13.8333 15 13.8333C14.3556 13.8333 13.8333 14.3556 13.8333 15C13.8333 15.6443 14.3556 16.1666 15 16.1666Z" stroke="#50FFB3"/>
<path d="M11.5 15H13.8333" stroke="#50FFB3" stroke-linecap="round"/>
<path d="M16.1667 15H18.5" stroke="#50FFB3" stroke-linecap="round"/>
<path d="M13.25 18.0312L14.4167 16.0104" stroke="#50FFB3" stroke-linecap="round"/>
<path d="M15.5833 13.9897L16.75 11.969" stroke="#50FFB3" stroke-linecap="round"/>
<path d="M16.75 18.0312L15.5833 16.0104" stroke="#50FFB3" stroke-linecap="round"/>
<path d="M14.4167 13.9897L13.25 11.969" stroke="#50FFB3" stroke-linecap="round"/>
</g>
<defs>
<clipPath id="clip0_29_83">
<rect width="14" height="14" fill="white" transform="translate(8 8)"/>
</clipPath>
</defs>
</svg>
