<svg width="30" height="43" viewBox="0 0 33 43" fill="none" xmlns="http://www.w3.org/2000/svg">
<mask id="path-1-inside-1_46_2" fill="white">
<path d="M15 43L2.5 23L8.5 27L15 29.5L21.5 27L27.5 23L15 43Z"/>
</mask>
<path d="M15 43L-63.8638 92.2899L15 218.472L93.8638 92.2899L15 43ZM2.5 23L54.0871 -54.3807L-76.3638 72.2899L2.5 23ZM27.5 23L106.364 72.2899L-24.0871 -54.3807L27.5 23ZM15 29.5L-18.3851 116.301L15 129.142L48.385 116.301L15 29.5ZM8.5 27L-43.0871 104.381L-34.5083 110.1L-24.8851 113.801L8.5 27ZM21.5 27L54.8851 113.801L64.5083 110.1L73.0871 104.381L21.5 27ZM93.8638 -6.2899L81.3638 -26.2899L-76.3638 72.2899L-63.8638 92.2899L93.8638 -6.2899ZM-51.3638 -26.2899L-63.8638 -6.2899L93.8638 92.2899L106.364 72.2899L-51.3638 -26.2899ZM-49.0871 100.381L-43.0871 104.381L60.0871 -50.3807L54.0871 -54.3807L-49.0871 100.381ZM-24.8851 113.801L-18.3851 116.301L48.3851 -57.3011L41.8851 -59.8011L-24.8851 113.801ZM48.385 116.301L54.8851 113.801L-11.8851 -59.8011L-18.3851 -57.3011L48.385 116.301ZM73.0871 104.381L79.0871 100.381L-24.0871 -54.3807L-30.0871 -50.3807L73.0871 104.381Z" fill="black" mask="url(#path-1-inside-1_46_2)"/>
<circle cx="15" cy="15" r="13.5" fill="#50FFB3" stroke="black" stroke-width="3"/>
<path d="M15.1093 8.21206L15 8.01538L14.8907 8.21206L8.5271 19.6666L8.42393 19.8523H8.63637H21.3636H21.5761L21.4729 19.6666L15.1093 8.21206ZM10.1174 18.9659L15 9.81112L19.8826 18.9659H10.1174Z" fill="black" stroke="black" stroke-width="0.25"/>
<path d="M14.44 17.0546H15.56V18.3274H14.44V17.0546Z" fill="black" fill-opacity="0.941176"/>
<path d="M14.44 16.4182H15.56V12.6H14.44V16.4182Z" fill="black" fill-opacity="0.941176"/>
</svg>
