<svg width="30" height="43" viewBox="0 0 32 43" fill="none" xmlns="http://www.w3.org/2000/svg">
<mask id="path-1-inside-1_62_9" fill="white">
<path d="M15 43L2.5 23L8.5 27L15 29.5L21.5 27L27.5 23L15 43Z"/>
</mask>
<path d="M15 43L-63.8638 92.2899L15 218.472L93.8638 92.2899L15 43ZM2.5 23L54.0871 -54.3807L-76.3638 72.2899L2.5 23ZM27.5 23L106.364 72.2899L-24.0871 -54.3807L27.5 23ZM15 29.5L-18.3851 116.301L15 129.142L48.385 116.301L15 29.5ZM8.5 27L-43.0871 104.381L-34.5083 110.1L-24.8851 113.801L8.5 27ZM21.5 27L54.8851 113.801L64.5083 110.1L73.0871 104.381L21.5 27ZM93.8638 -6.2899L81.3638 -26.2899L-76.3638 72.2899L-63.8638 92.2899L93.8638 -6.2899ZM-51.3638 -26.2899L-63.8638 -6.2899L93.8638 92.2899L106.364 72.2899L-51.3638 -26.2899ZM-49.0871 100.381L-43.0871 104.381L60.0871 -50.3807L54.0871 -54.3807L-49.0871 100.381ZM-24.8851 113.801L-18.3851 116.301L48.3851 -57.3011L41.8851 -59.8011L-24.8851 113.801ZM48.385 116.301L54.8851 113.801L-11.8851 -59.8011L-18.3851 -57.3011L48.385 116.301ZM73.0871 104.381L79.0871 100.381L-24.0871 -54.3807L-30.0871 -50.3807L73.0871 104.381Z" fill="#50FFB3" mask="url(#path-1-inside-1_62_9)"/>
<circle cx="15" cy="15" r="13.5" fill="#111111" stroke="#50FFB3" stroke-width="3"/>
<path d="M10.3418 17.2334V18H6.57715V17.2334H10.3418ZM6.76758 10.8906V18H5.8252V10.8906H6.76758ZM9.84375 13.9473V14.7139H6.57715V13.9473H9.84375ZM10.293 10.8906V11.6621H6.57715V10.8906H10.293ZM16.9775 10.8906V18H16.0303L12.4512 12.5166V18H11.5088V10.8906H12.4512L16.0449 16.3887V10.8906H16.9775ZM20.5713 18H19.0869L19.0967 17.2334H20.5713C21.0791 17.2334 21.5023 17.1276 21.8408 16.916C22.1794 16.7012 22.4333 16.4017 22.6025 16.0176C22.7751 15.6302 22.8613 15.1777 22.8613 14.6602V14.2256C22.8613 13.8187 22.8125 13.4574 22.7148 13.1416C22.6172 12.8226 22.474 12.554 22.2852 12.3359C22.0964 12.1146 21.8652 11.9469 21.5918 11.833C21.3216 11.7191 21.0107 11.6621 20.6592 11.6621H19.0576V10.8906H20.6592C21.1247 10.8906 21.5495 10.9688 21.9336 11.125C22.3177 11.278 22.6481 11.501 22.9248 11.7939C23.2048 12.0837 23.4196 12.4352 23.5693 12.8486C23.7191 13.2588 23.7939 13.721 23.7939 14.2354V14.6602C23.7939 15.1745 23.7191 15.6383 23.5693 16.0518C23.4196 16.4619 23.2031 16.8118 22.9199 17.1016C22.64 17.3913 22.3014 17.6143 21.9043 17.7705C21.5104 17.9235 21.0661 18 20.5713 18ZM19.5898 10.8906V18H18.6475V10.8906H19.5898Z" fill="#50FFB3"/>
</svg>
