<svg width="21" height="21" viewBox="0 0 21 21" fill="none" xmlns="http://www.w3.org/2000/svg">
<g clip-path="url(#clip0_81_8)">
<path fill-rule="evenodd" clip-rule="evenodd" d="M18.375 9.30694L10.5 18.7031L2.625 9.26821C1.68328 7.95965 1.3125 7.07568 1.3125 5.86555C1.3125 3.60871 2.92359 1.57762 5.25 1.55859C7.16362 1.54284 9.33319 3.49714 10.5 4.97042C11.636 3.54898 13.8364 1.55859 15.75 1.55859C18.0147 1.55859 19.6875 3.60871 19.6875 5.86555C19.6875 7.07568 19.3942 8.02529 18.375 9.30694ZM15.75 0.328125C13.5627 0.328125 11.9077 1.61175 10.5 2.95312C9.15928 1.52972 7.43728 0.328125 5.25 0.328125C2.16956 0.328125 0 2.97674 0 5.86555C0 7.41496 0.634594 8.53058 1.32956 9.57927L9.48872 19.3613C10.4042 20.3306 10.5774 20.3306 11.4929 19.3613L19.6704 9.57927C20.4881 8.53058 21 7.41496 21 5.86555C21 2.97674 18.8304 0.328125 15.75 0.328125Z" fill="#50FFB3"/>
<ellipse cx="5.77499" cy="6.47502" rx="4.725" ry="5.075" fill="#50FFB3"/>
<ellipse cx="15.225" cy="6.47502" rx="4.725" ry="5.075" fill="#50FFB3"/>
<ellipse cx="10.675" cy="8.92498" rx="4.725" ry="5.075" fill="#50FFB3"/>
<ellipse cx="10.5" cy="9.62499" rx="7" ry="5.075" fill="#50FFB3"/>
<ellipse cx="9.97499" cy="12.775" rx="3.675" ry="5.075" fill="#50FFB3"/>
<ellipse cx="12.775" cy="13.825" rx="2.275" ry="2.625" fill="#50FFB3"/>
<ellipse cx="10.325" cy="15.925" rx="2.275" ry="2.625" fill="#50FFB3"/>
</g>
<defs>
<clipPath id="clip0_81_8">
<rect width="21" height="21" fill="white"/>
</clipPath>
</defs>
</svg>
