<svg width="30" height="43" viewBox="0 0 32 43" fill="none" xmlns="http://www.w3.org/2000/svg">
<mask id="path-1-inside-1_29_76" fill="white">
<path d="M15 43L2.5 23L8.5 27L15 29.5L21.5 27L27.5 23L15 43Z"/>
</mask>
<path d="M15 43L-63.8638 92.2899L15 218.472L93.8638 92.2899L15 43ZM2.5 23L54.0871 -54.3807L-76.3638 72.2899L2.5 23ZM27.5 23L106.364 72.2899L-24.0871 -54.3807L27.5 23ZM15 29.5L-18.3851 116.301L15 129.142L48.385 116.301L15 29.5ZM8.5 27L-43.0871 104.381L-34.5083 110.1L-24.8851 113.801L8.5 27ZM21.5 27L54.885 113.801L64.5083 110.1L73.0871 104.381L21.5 27ZM93.8638 -6.2899L81.3638 -26.2899L-76.3638 72.2899L-63.8638 92.2899L93.8638 -6.2899ZM-51.3638 -26.2899L-63.8638 -6.2899L93.8638 92.2899L106.364 72.2899L-51.3638 -26.2899ZM-49.0871 100.381L-43.0871 104.381L60.0871 -50.3807L54.0871 -54.3807L-49.0871 100.381ZM-24.8851 113.801L-18.3851 116.301L48.3851 -57.3011L41.8851 -59.8011L-24.8851 113.801ZM48.385 116.301L54.885 113.801L-11.8851 -59.8011L-18.3851 -57.3011L48.385 116.301ZM73.0871 104.381L79.0871 100.381L-24.0871 -54.3807L-30.0871 -50.3807L73.0871 104.381Z" fill="#50FFB3" mask="url(#path-1-inside-1_29_76)"/>
<circle cx="15" cy="15" r="13.5" fill="#111111" stroke="#50FFB3" stroke-width="3"/>
<path d="M19.8226 19.6832H10.177L10.1836 18.8541L11.3036 17.8885C11.3036 17.8885 13.32 18.5535 14.9952 18.5535C16.6459 18.5535 18.724 17.8885 18.724 17.8885L19.823 18.8423L19.8226 19.6832ZM11.5801 17.5521L12.2801 15.3313H17.7108L18.4108 17.5521C18.4108 17.5521 16.2959 18.1825 15.0114 18.1825C13.7579 18.183 11.5801 17.5521 11.5801 17.5521ZM12.6944 14.0162L13.3939 11.7959H16.5973L17.2964 14.0162H12.6944ZM14.4899 8.31647H15.5005L16.1826 10.4799H13.8083L14.4899 8.31647Z" fill="#50FFB3"/>
</svg>
