<svg width="50" height="50" viewBox="0 0 50 50" fill="none" xmlns="http://www.w3.org/2000/svg">
<path d="M42.2235 45.2969H7.77502L7.79846 42.3359L11.7985 38.8875C11.7985 38.8875 19 41.2625 24.9828 41.2625C30.8782 41.2625 38.3 38.8875 38.3 38.8875L42.225 42.2937L42.2235 45.2969ZM12.786 37.6859L15.286 29.7547H34.6813L37.1813 37.6859C37.1813 37.6859 29.6281 39.9375 25.0406 39.9375C20.5641 39.939 12.786 37.6859 12.786 37.6859ZM16.7656 25.0578L19.2641 17.1281H30.7047L33.2016 25.0578H16.7656ZM23.1781 4.70154H26.7875L29.2235 12.4281H20.7438L23.1781 4.70154Z" fill="white"/>
</svg>
