<svg width="50" height="50" viewBox="0 0 50 50" fill="none" xmlns="http://www.w3.org/2000/svg">
<path d="M42.2234 45.2969H7.77499L7.79843 42.3359L11.7984 38.8875C11.7984 38.8875 19 41.2625 24.9828 41.2625C30.8781 41.2625 38.3 38.8875 38.3 38.8875L42.225 42.2938L42.2234 45.2969ZM12.7859 37.6859L15.2859 29.7547H34.6812L37.1812 37.6859C37.1812 37.6859 29.6281 39.9375 25.0406 39.9375C20.5641 39.9391 12.7859 37.6859 12.7859 37.6859ZM16.7656 25.0578L19.2641 17.1281H30.7047L33.2016 25.0578H16.7656ZM23.1781 4.70157H26.7875L29.2234 12.4281H20.7437L23.1781 4.70157Z" fill="black"/>
</svg>
