<svg width="28" height="28" viewBox="0 0 28 28" fill="none" xmlns="http://www.w3.org/2000/svg">
<path d="M16.4255 1.75C16.6108 1.75001 16.7912 1.80881 16.9409 1.91793C17.0906 2.02706 17.2018 2.18089 17.2585 2.35725L18.221 5.348C18.6253 5.54575 19.012 5.768 19.3813 6.01825L22.4543 5.35675C22.6354 5.31807 22.8242 5.33789 22.9934 5.41337C23.1626 5.48885 23.3035 5.61608 23.3958 5.77675L25.8213 9.975C25.9139 10.1356 25.9531 10.3214 25.9333 10.5057C25.9135 10.69 25.8356 10.8633 25.711 11.0005L23.6023 13.328C23.633 13.7743 23.633 14.2222 23.6023 14.6685L25.711 16.9995C25.8356 17.1367 25.9135 17.31 25.9333 17.4943C25.9531 17.6786 25.9139 17.8644 25.8213 18.025L23.3958 22.225C23.3032 22.3853 23.1623 22.5122 22.9931 22.5874C22.8239 22.6625 22.6353 22.6821 22.4543 22.6433L19.3813 21.9817C19.0138 22.2302 18.6253 22.4543 18.2228 22.652L17.2585 25.6427C17.2018 25.8191 17.0906 25.9729 16.9409 26.0821C16.7912 26.1912 16.6108 26.25 16.4255 26.25H11.5745C11.3893 26.25 11.2088 26.1912 11.0591 26.0821C10.9094 25.9729 10.7982 25.8191 10.7415 25.6427L9.78076 22.6537C9.37759 22.4566 8.98872 22.2315 8.61701 21.98L5.54576 22.6433C5.36457 22.6819 5.17578 22.6621 5.00658 22.5866C4.83739 22.5112 4.69651 22.3839 4.60426 22.2233L2.17876 18.025C2.08614 17.8644 2.04691 17.6786 2.06672 17.4943C2.08654 17.31 2.16437 17.1367 2.28901 16.9995L4.39776 14.6685C4.36721 14.2234 4.36721 13.7766 4.39776 13.3315L2.28901 11.0005C2.16437 10.8633 2.08654 10.69 2.06672 10.5057C2.04691 10.3214 2.08614 10.1356 2.17876 9.975L4.60426 5.775C4.69677 5.61465 4.83775 5.48778 5.00693 5.41263C5.1761 5.33747 5.36476 5.31791 5.54576 5.35675L8.61701 6.02C8.98801 5.76975 9.37651 5.544 9.78076 5.34625L10.7433 2.35725C10.7998 2.18145 10.9104 2.02804 11.0594 1.91896C11.2084 1.80989 11.3881 1.75074 11.5728 1.75H16.4238H16.4255ZM15.785 3.5H12.215L11.221 6.59225L10.5508 6.9195C10.2213 7.08074 9.90319 7.26434 9.59876 7.469L8.97926 7.889L5.80126 7.203L4.01626 10.297L6.19501 12.7085L6.14251 13.4505C6.11736 13.8164 6.11736 14.1836 6.14251 14.5495L6.19501 15.2915L4.01276 17.703L5.79951 20.797L8.97751 20.1128L9.59701 20.531C9.90144 20.7357 10.2195 20.9193 10.549 21.0805L11.2193 21.4077L12.215 24.5H15.7885L16.786 21.406L17.4545 21.0805C17.7836 20.9196 18.1012 20.736 18.4048 20.531L19.0225 20.1128L22.2023 20.797L23.9873 17.703L21.8068 15.2915L21.8593 14.5495C21.8845 14.183 21.8845 13.8152 21.8593 13.4487L21.8068 12.7068L23.989 10.297L22.2023 7.203L19.0225 7.8855L18.4048 7.469C18.1012 7.26392 17.7837 7.08031 17.4545 6.9195L16.786 6.594L15.7868 3.5H15.785ZM14 8.75C15.3924 8.75 16.7278 9.30312 17.7123 10.2877C18.6969 11.2723 19.25 12.6076 19.25 14C19.25 15.3924 18.6969 16.7277 17.7123 17.7123C16.7278 18.6969 15.3924 19.25 14 19.25C12.6076 19.25 11.2723 18.6969 10.2877 17.7123C9.30313 16.7277 8.75001 15.3924 8.75001 14C8.75001 12.6076 9.30313 11.2723 10.2877 10.2877C11.2723 9.30312 12.6076 8.75 14 8.75ZM14 10.5C13.0717 10.5 12.1815 10.8687 11.5251 11.5251C10.8688 12.1815 10.5 13.0717 10.5 14C10.5 14.9283 10.8688 15.8185 11.5251 16.4749C12.1815 17.1313 13.0717 17.5 14 17.5C14.9283 17.5 15.8185 17.1313 16.4749 16.4749C17.1313 15.8185 17.5 14.9283 17.5 14C17.5 13.0717 17.1313 12.1815 16.4749 11.5251C15.8185 10.8687 14.9283 10.5 14 10.5Z" fill="white"/>
</svg>
