<svg width="28" height="29" viewBox="0 0 18 19" fill="none" xmlns="http://www.w3.org/2000/svg">
<g clip-path="url(#clip0_51_57)">
<path d="M9.5625 12.4688H6.1875V13.6562H9.5625V12.4688Z" fill="black"/>
<path d="M13.6381 4.75L14.6025 8.3125H16.875V7.125H15.4512L14.72 4.42415C14.6522 4.17632 14.5102 3.95837 14.3151 3.803C14.12 3.64764 13.8825 3.56325 13.6381 3.5625H12.8797L12.4698 2.04915C12.4021 1.80135 12.26 1.58342 12.065 1.42806C11.87 1.2727 11.6325 1.18829 11.3881 1.1875H4.36185C4.11756 1.18828 3.88009 1.27265 3.68507 1.42795C3.49006 1.58325 3.348 1.80111 3.28022 2.04885L2.5488 4.75H1.125V5.9375H3.3975L4.36185 2.375H11.3881L11.7096 3.5625H6.61185C6.36761 3.56327 6.13019 3.64759 5.93519 3.80281C5.74018 3.95803 5.59809 4.17579 5.53022 4.42344L4.95962 6.53125H4.33935C4.10485 6.53113 3.87618 6.60844 3.68538 6.75234C3.49458 6.89625 3.3512 7.09955 3.27533 7.33376L2.57147 9.5H1.125V10.6875H2.25V14.8438C2.25037 15.1586 2.36902 15.4604 2.57992 15.683C2.79081 15.9056 3.07675 16.0309 3.375 16.0312V17.8125H4.5V16.0312H11.25V17.8125H12.375V16.0312C12.6733 16.0309 12.9592 15.9056 13.1701 15.683C13.381 15.4604 13.4996 15.1586 13.5 14.8438V10.6875H14.625V9.5H13.1786L12.475 7.3343C12.3991 7.09997 12.2557 6.89655 12.0648 6.75255C11.874 6.60855 11.6452 6.53117 11.4107 6.53125H6.12956L6.61185 4.75H13.6381ZM12.375 11.2812V12.4688H11.25V13.6562H12.375V14.8438H3.375V13.6562H4.5V12.4688H3.375V11.2812H12.375ZM12.1821 10.0938H3.56783L4.33935 7.71875H11.4107L12.1821 10.0938Z" fill="black"/>
</g>
<defs>
<clipPath id="clip0_51_57">
<rect width="18" height="19" fill="white"/>
</clipPath>
</defs>
</svg>
